# xmcd CD database file
#
# Track frame offsets:
#	150
#	7277
#	18072
#	30562
#	43285
#	56625
#	65052
#	78317
#	90085
#	100602
#	111212
#	118207
#	131122
#	143830
#	153412
#	165745
#	174490
#	182355
#	195965
#	206687
#	216995
#	228125
#	245285
#	255295
#	269190
#
# Disc length: 3767 seconds
#
# Revision: 0
# Processed by: cddbd v1.5.2PL0 Copyright (c) Steve Scherf et al.
# Submitted via: CDex 1.70beta2
#
DISCID=550eb519
DTITLE=Various Artist - Country Classics vol 3
DYEAR=1998
DGENRE=Country
TTITLE0==Barbara Mandrell - Kentucky Means Paradise
TTITLE1==Patsy Cline - Stop, Look and Listen
TTITLE2==George Jones - I can't Escape From You
TTITLE3==Kitty Wells - Makin' Believe
TTITLE4==Billie Joe Spears - Fever
TTITLE5==Waylon Jennings - Abilene
TTITLE6==Don Williams - Ruby Tuesday
TTITLE7==Kenny Rogers - Elvira
TTITLE8==Faron Young - If You Ain't Lovin'
TTITLE9==Waylon Jennings - Dream Baby
TTITLE10==Marty Robbins - Maybellene
TTITLE11==Jerry Lee Louis - Good Rockin' Tonight
TTITLE12==Dolly Parton - Little Blossom
TTITLE13==Ned Miller - From A Jack To A King
TTITLE14==Wille Nelson - I Can't Find The Time
TTITLE15==Waylon Jennings - Love's Gonna Live Here
TTITLE16==George Jones - Jambalaya
TTITLE17==Don Williams - Where Do We Go From Here
TTITLE18==Kenny Rogers - Homemade Lies
TTITLE19==Patsy Cline - Turn The Cards Slowly
TTITLE20==Stonewall Jackson - Things To Talk About
TTITLE21==Johnny Lee - Young Song
TTITLE22==Willie Nelsson - I Didn't Sleep A Wink
TTITLE23==George Jones - Cold Cold Heart
TTITLE24==Gene Pitney - Town Without Pity
EXTD=YEAR: 1998
EXTT0=
EXTT1=
EXTT2=
EXTT3=
EXTT4=
EXTT5=
EXTT6=
EXTT7=
EXTT8=
EXTT9=
EXTT10=
EXTT11=
EXTT12=
EXTT13=
EXTT14=
EXTT15=
EXTT16=
EXTT17=
EXTT18=
EXTT19=
EXTT20=
EXTT21=
EXTT22=
EXTT23=
EXTT24=
PLAYORDER=
